<svg width="50" height="50" viewBox="0 0 50 50" fill="none" xmlns="http://www.w3.org/2000/svg">
<path d="M3.31351 5.93975C3.77038 5.93975 4.06545 6.66396 4.1987 8.1124L4.31292 9.67671C4.31292 10.8548 4.10352 13.9255 3.68472 18.8888H3.85604V18.9757L3.97026 18.8888H4.1987L7.53958 19.1495H7.76802L9.19574 18.715H9.39563C9.70021 18.9081 9.90961 19.1785 10.0238 19.5261C10.0238 20.26 9.21478 20.7138 7.59669 20.8876L4.68413 20.5979H4.14159L2.77097 20.9745C2.25699 20.7814 2 20.4724 2 20.0475L2.59965 10.1112V9.67671L2.42832 6.77984C2.42832 6.29703 2.72338 6.017 3.31351 5.93975Z" fill="black"/>
<path d="M12.3205 4.69409C12.7773 4.69409 13.0724 4.9355 13.2056 5.41831L13.0343 7.12746V7.67787C13.5102 11.6756 13.8053 14.7849 13.9195 17.0058C14.1289 19.0722 14.3478 20.1055 14.5763 20.1055C14.5763 20.511 14.2431 20.7717 13.5769 20.8876C12.625 20.8876 12.1491 18.937 12.1491 15.0359L11.3496 7.50406V7.24334C11.3496 5.54384 11.6732 4.69409 12.3205 4.69409Z" fill="black"/>
<path d="M18.1958 4.75203C19.0905 5.04172 20.7942 8.56624 23.307 15.3256L23.7354 15.847V14.2248C23.7354 9.91812 24.7824 6.8764 26.8764 5.09965C27.3523 5.09965 27.6473 5.42797 27.7615 6.08459C26.3338 8.24759 25.62 9.99537 25.62 11.3279C25.5248 11.3279 25.4677 11.9363 25.4486 13.153V14.6883C25.4486 16.0209 25.5914 17.9231 25.8769 20.3951C25.7056 20.878 25.401 21.1194 24.9632 21.1194C24.5254 21.1194 23.9067 20.2117 23.1072 18.3963C22.1363 16.832 21.0703 14.4566 19.909 11.27H19.7948V11.4438L19.9662 15.1228C19.9662 18.9274 19.2523 21.3801 17.8246 22.4809L17.1107 22.5678C16.5206 22.5678 16.0256 22.0174 15.6259 20.9166C15.7591 20.3179 16.0542 20.0185 16.5111 20.0185H16.6824L17.2249 20.482H17.3106C17.9769 19.5744 18.31 17.8555 18.31 15.3256C18.31 12.7764 17.9483 9.55118 17.2249 5.65006C17.2249 5.12862 17.5485 4.82928 18.1958 4.75203Z" fill="black"/>
<path d="M31.4919 2C31.8346 2 32.1011 2.24141 32.2915 2.72422C31.4729 4.92584 31.0636 7.79374 31.0636 11.3279V14.4855H31.1207C32.1868 13.404 33.8334 10.063 36.0607 4.46234C36.6317 3.72847 37.0696 3.36153 37.3742 3.36153H37.4884C37.812 3.36153 38.069 3.545 38.2594 3.91194V4.46234C37.7263 4.79065 36.4223 7.52337 34.3474 12.6605L32.0059 16.2236V16.2816C34.157 18.5411 36.3938 19.6709 38.7162 19.6709H39.8013C40.5056 19.6709 40.9816 19.6033 41.229 19.4681C41.743 19.6806 42 19.9896 42 20.3951V20.6269C42 21.1097 41.1719 21.3511 39.5158 21.3511H39.0874C36.3652 21.3511 33.7668 20.2117 31.292 17.9328H31.1207V21.2932C31.1207 21.9498 30.8257 22.2781 30.2355 22.2781C29.7025 22.2781 29.436 21.9498 29.436 21.2932V17.8459C28.7317 17.3051 28.3795 16.7258 28.3795 16.1078C28.3795 15.5863 28.7031 15.3256 29.3503 15.3256V11.2121C29.3503 7.46543 29.8262 4.49131 30.7781 2.28969C31.0255 2.09656 31.2635 2 31.4919 2Z" fill="black"/>
<path d="M3.31351 5.78975H3.30373L3.29404 5.79101C2.98145 5.83193 2.72533 5.92905 2.54636 6.09891C2.36344 6.27251 2.27832 6.50562 2.27832 6.77984H2.27806L2.27858 6.78869L2.44965 9.68114V10.1067L1.85027 20.0385L1.85 20.0385V20.0475C1.85 20.2928 1.92517 20.5108 2.07742 20.6938C2.22755 20.8744 2.4454 21.0124 2.71821 21.1149L2.76378 21.132L2.81071 21.1192L4.16182 20.7479H4.67668L7.58184 21.0369L7.59728 21.0384L7.61271 21.0368C8.42899 20.9491 9.05961 20.7894 9.49043 20.5477C9.92769 20.3024 10.1738 19.9621 10.1738 19.5261V19.5021L10.1663 19.4793C10.0414 19.0991 9.81035 18.8003 9.47595 18.5883L9.43917 18.565H9.39563H9.19574H9.17342L9.15207 18.5715L7.7457 18.9995H7.54541L4.21037 18.7392L4.21041 18.7388H4.1987H4.00604H3.97026H3.91969H3.85605H3.84789C4.25735 13.8733 4.46292 10.8496 4.46292 9.67671H4.46332L4.46252 9.66579L4.3483 8.10148L4.34833 8.10148L4.34807 8.09866C4.28104 7.37006 4.17238 6.80922 4.01637 6.42631C3.86369 6.05156 3.63936 5.78975 3.31351 5.78975ZM13.3549 5.43327L13.3577 5.4054L13.3502 5.3784C13.2779 5.11639 13.1575 4.90474 12.9794 4.75905C12.8 4.61229 12.5764 4.54409 12.3205 4.54409C12.1224 4.54409 11.9457 4.61031 11.7969 4.74055C11.6511 4.86816 11.5384 5.0515 11.4521 5.27802C11.2804 5.72892 11.1996 6.38837 11.1996 7.24334V7.50406V7.512L11.2004 7.51989L11.9991 15.0439C11.9995 16.9935 12.1183 18.4683 12.3603 19.4602C12.4813 19.956 12.6359 20.3437 12.8312 20.6105C13.0295 20.8813 13.2784 21.0376 13.5769 21.0376H13.5898L13.6026 21.0354C13.947 20.9755 14.2245 20.8754 14.4189 20.7233C14.6199 20.5659 14.7263 20.3566 14.7263 20.1055V19.9555H14.6016C14.588 19.939 14.5682 19.907 14.5444 19.8521C14.4945 19.7369 14.4416 19.5549 14.3875 19.2994C14.2799 18.7916 14.1736 18.0244 14.0691 16.9944C13.9546 14.7703 13.6595 11.6613 13.1843 7.66897V7.13497L13.3549 5.43327ZM14.6104 19.9648C14.6104 19.9648 14.6102 19.9647 14.6098 19.9643L14.6104 19.9648ZM18.242 4.60932L18.2107 4.59918L18.178 4.60308C17.8373 4.64375 17.5595 4.74513 17.3658 4.92436C17.1677 5.10762 17.0749 5.35585 17.0749 5.65006V5.66385L17.0774 5.67741C17.8 9.57389 18.16 12.7891 18.16 15.3256C18.16 16.5848 18.077 17.6368 17.9129 18.4836C17.7592 19.2767 17.536 19.8809 17.2505 20.3066L16.7798 19.9045L16.7377 19.8685H16.6824H16.5111C16.2463 19.8685 16.0186 19.9568 15.8403 20.1378C15.6659 20.3147 15.5495 20.5691 15.4795 20.884L15.47 20.9267L15.4849 20.9678C15.6879 21.527 15.9197 21.9599 16.1854 22.2553C16.4535 22.5535 16.7627 22.7178 17.1107 22.7178H17.1198L17.1288 22.7167L17.8427 22.6298L17.8836 22.6248L17.9162 22.5997C18.6638 22.0233 19.2126 21.1022 19.5748 19.8577C19.9371 18.6128 20.1162 17.0331 20.1162 15.1228H20.1163L20.116 15.1159L19.9641 11.8539C21.0488 14.772 22.0519 16.978 22.9741 18.4664C23.3734 19.3722 23.7309 20.0595 24.0469 20.5231C24.2052 20.7554 24.3571 20.9375 24.5032 21.0629C24.6473 21.1867 24.802 21.2694 24.9632 21.2694C25.2114 21.2694 25.4311 21.2002 25.6132 21.0559C25.7935 20.9129 25.9262 20.705 26.0183 20.4453L26.03 20.4125L26.026 20.3779C25.7406 17.9077 25.5986 16.0121 25.5986 14.6883V13.1541C25.6081 12.5472 25.6271 12.0961 25.6551 11.7982C25.6692 11.648 25.685 11.5431 25.7012 11.4784C25.7013 11.4783 25.7013 11.4781 25.7013 11.4779H25.77V11.3279C25.77 10.0416 26.4624 8.32509 27.8867 6.16722L27.9195 6.11754L27.9093 6.05888C27.8497 5.71598 27.7398 5.43884 27.5662 5.24562C27.3878 5.04713 27.1531 4.94965 26.8764 4.94965H26.8213L26.7793 4.98528C24.6365 6.80345 23.5854 9.899 23.5854 14.2248V15.4281L23.4389 15.2498C22.1858 11.8803 21.1327 9.31196 20.2797 7.54741C19.8524 6.66352 19.4733 5.97702 19.1425 5.49137C18.9771 5.2486 18.8214 5.05256 18.6754 4.9063C18.5311 4.76184 18.3866 4.65613 18.242 4.60932ZM32.4321 2.77649L32.4521 2.72264L32.431 2.6692C32.2315 2.16329 31.9262 1.85 31.4919 1.85C31.2195 1.85 30.9499 1.96534 30.6858 2.17143L30.6556 2.195L30.6404 2.23016C29.6772 4.45815 29.2003 7.45523 29.2003 11.2121V15.1803C28.927 15.1982 28.6977 15.2677 28.5281 15.4043C28.3221 15.5703 28.2295 15.8143 28.2295 16.1078C28.2295 16.7716 28.5992 17.3749 29.286 17.9191V21.2932C29.286 21.6379 29.3553 21.9243 29.5194 22.1264C29.6884 22.3345 29.9367 22.4281 30.2355 22.4281C30.5581 22.4281 30.8263 22.3376 31.011 22.1321C31.1929 21.9297 31.2707 21.6409 31.2707 21.2932V18.1166C33.7425 20.3659 36.3489 21.5011 39.0874 21.5011H39.5158C40.3475 21.5011 40.9859 21.4409 41.4209 21.3141C41.6382 21.2507 41.8168 21.1674 41.9435 21.0566C42.0745 20.942 42.15 20.7971 42.15 20.6269V20.3951C42.15 20.1577 42.0737 19.945 41.9226 19.7633C41.7737 19.5843 41.5577 19.4417 41.2863 19.3295L41.2201 19.3021L41.1571 19.3365C41.0565 19.3915 40.8963 19.4389 40.6654 19.4717C40.4368 19.5042 40.1493 19.5209 39.8013 19.5209H38.7162C36.4687 19.5209 34.2885 18.4391 32.1743 16.2406L34.4727 12.7429L34.4809 12.7304L34.4865 12.7167C35.5236 10.149 36.367 8.18491 37.017 6.82271C37.3421 6.14132 37.6176 5.61329 37.8437 5.23659C37.9567 5.04815 38.056 4.90006 38.1416 4.79048C38.2292 4.67821 38.2946 4.61678 38.338 4.59006L38.4094 4.54612V4.46234V3.91194V3.87534L38.3925 3.84286C38.1848 3.44247 37.8842 3.21153 37.4884 3.21153H37.3742C37.1668 3.21153 36.9463 3.33299 36.721 3.52177C36.4905 3.71494 36.2308 3.99942 35.9423 4.37022L35.9292 4.38707L35.9213 4.40691C34.8083 7.20548 33.8415 9.43681 33.0207 11.1023C32.2999 12.5648 31.6974 13.5786 31.2136 14.1586V11.3279C31.2136 7.80349 31.622 4.95518 32.4321 2.77649Z" stroke="black" stroke-opacity="0.2" stroke-width="0.3"/>
<path d="M11.4242 30.1787L17.6771 30H18.3024C19.4934 30 20.0889 30.3375 20.0889 31.0124C19.6919 32.8386 18.0145 35.439 15.0568 38.8136C13.3298 40.4612 12.4663 41.3743 12.4663 41.5529C15.4836 44.2724 17.3098 45.662 17.945 45.7215L19.3445 45.9002C20.079 45.9002 20.8233 45.7513 21.5777 45.4535C22.1335 45.652 22.4114 45.9597 22.4114 46.3766C22.4114 47.111 21.4189 47.5477 19.4338 47.6867H19.0467C17.2007 47.6867 14.7789 46.1582 11.7815 43.1013L10.8585 42.5355C9.74683 43.1707 9.062 43.4883 8.80394 43.4883C8.36723 43.4883 8.09925 43.1707 8 42.5355C8 41.5232 8.70469 40.8482 10.1141 40.5108L10.5011 40.6001C13.0817 38.5158 15.2255 36.2529 16.9327 33.8113C17.6076 32.6997 17.945 32.0148 17.945 31.7568H17.6771L11.4242 31.9354L11.3349 32.0545H11.2455C10.0744 32.0545 9.48878 31.7468 9.48878 31.1315V31.0124C9.48878 30.4566 9.82624 30.1787 10.5011 30.1787H11.4242Z" fill="black"/>
<path d="M26.7207 32.7691C28.1896 32.7691 29.3012 33.8609 30.0556 36.0444L30.1747 36.6697C30.1747 38.7937 29.1821 40.9673 27.1971 43.1906C26.4031 43.925 25.5992 44.2923 24.7853 44.2923C23.5943 44.2923 22.7506 43.6074 22.2544 42.2378C22.0757 41.6026 21.9864 41.0467 21.9864 40.5703V40.213C21.9864 37.0767 23.1278 34.6946 25.4106 33.0669C25.8076 32.8684 26.2443 32.7691 26.7207 32.7691ZM23.7431 40.5108C23.7431 41.8606 24.0905 42.5355 24.7853 42.5355C26.2344 42.5355 27.4353 40.6795 28.3881 36.9675V36.4017C28.0507 35.171 27.4254 34.5557 26.5123 34.5557C26.155 34.5557 25.9763 34.8038 25.9763 35.3001C25.9763 35.6375 25.5793 35.9055 24.7853 36.104C24.0905 37.2752 23.7431 38.7441 23.7431 40.5108Z" fill="black"/>
<path d="M35.3649 33.9602C37.0522 34.0991 37.8958 34.9229 37.8958 36.4315L37.9554 36.8186L37.8958 41.4636C37.8958 41.9996 38.2035 42.7241 38.8189 43.6372V43.6968C38.6601 44.2724 38.3723 44.5603 37.9554 44.5603C36.7247 44.0441 36.1093 42.9524 36.1093 41.2849V40.8979L36.02 40.8383L36.1093 40.7192V40.6597L36.1986 36.5506C36.1986 35.975 35.9505 35.6871 35.4542 35.6871H35.0969C34.1044 36.0841 33.6082 38.2578 33.6082 42.208C33.6082 43.5777 33.2608 44.2625 32.566 44.2625C32.0301 44.2625 31.7521 43.925 31.7323 43.2501V40.2726C31.7323 36.4216 32.0698 34.4961 32.7447 34.4961L33.0424 34.4068L33.6677 34.4961C34.2037 34.1388 34.7694 33.9602 35.3649 33.9602Z" fill="black"/>
<path d="M42.432 33.3051C43.226 33.3249 44.5659 34.7145 46.4517 37.4737L46.5112 37.9799C46.5112 38.5357 45.1515 38.9625 42.432 39.2602L42.3426 39.3495V39.4686C42.7595 41.2552 43.1962 42.1484 43.6528 42.1484H44.0101C44.6453 42.1484 45.608 41.4636 46.8983 40.0939H47.077C47.474 40.0939 47.7816 40.3818 48 40.9574C48 41.4338 47.1663 42.2576 45.4989 43.4288C45.0621 43.6868 44.5361 43.8754 43.9207 43.9945C42.3129 43.9945 41.1913 42.4859 40.5561 39.4686C39.643 39.3297 39.1864 38.9525 39.1864 38.3372C39.1864 37.9005 39.5239 37.6126 40.1988 37.4737V37.5928L40.4966 37.4737V36.7293C40.4966 34.4465 41.1417 33.3051 42.432 33.3051ZM42.6106 35.4489H42.3426L42.2235 36.5506V37.4737H42.3426C43.4543 37.434 44.0101 37.3149 44.0101 37.1164C43.494 36.3422 43.0275 35.7864 42.6106 35.4489Z" fill="black"/>
<path d="M17.6771 29.85V29.8499L17.6728 29.8501L11.422 30.0287H10.5011C10.1469 30.0287 9.8533 30.101 9.64652 30.2713C9.43415 30.4462 9.33878 30.7028 9.33878 31.0124V31.1315C9.33878 31.3101 9.38161 31.4733 9.47192 31.6157C9.56185 31.7574 9.69345 31.87 9.8582 31.9565C10.1833 32.1273 10.6517 32.2045 11.2455 32.2045H11.3349H11.4099L11.4549 32.1445L11.5008 32.0833L17.6792 31.9068H17.7649C17.7581 31.9288 17.7501 31.9531 17.7405 31.9798C17.701 32.0903 17.6404 32.2292 17.5574 32.3976C17.3919 32.7335 17.1422 33.1769 16.807 33.7293C15.1217 36.1387 13.0077 38.3749 10.4636 40.4375L10.1478 40.3646L10.1134 40.3567L10.0791 40.3649C9.36026 40.537 8.80344 40.799 8.42476 41.1617C8.04165 41.5287 7.85 41.9902 7.85 42.5355V42.5472L7.8518 42.5587C7.90353 42.8898 8.0019 43.1586 8.16078 43.3469C8.32489 43.5414 8.54396 43.6383 8.80394 43.6383C8.89358 43.6383 9.00363 43.612 9.12539 43.5709C9.25035 43.5288 9.4003 43.4669 9.57422 43.3862C9.90602 43.2323 10.3335 43.0065 10.8557 42.7097L11.6874 43.2195C13.1855 44.746 14.5451 45.8967 15.7658 46.6672C16.9885 47.4389 18.0838 47.8367 19.0467 47.8367H19.4338V47.8371L19.4443 47.8363C20.4422 47.7665 21.2072 47.6211 21.7274 47.3922C22.2483 47.1631 22.5614 46.8302 22.5614 46.3766C22.5614 46.1312 22.4783 45.9142 22.3143 45.7326C22.1532 45.5543 21.9201 45.4165 21.6281 45.3123L21.575 45.2933L21.5226 45.314C20.7872 45.6043 20.0647 45.7489 19.354 45.7502L17.964 45.5727L17.964 45.5726L17.959 45.5722C17.8362 45.5606 17.628 45.4787 17.3214 45.2982C17.0209 45.1213 16.6441 44.861 16.1898 44.5153C15.2974 43.8364 14.1163 42.8359 12.6455 41.5124C12.6679 41.477 12.7008 41.4312 12.7459 41.3743C12.8497 41.243 13.0081 41.0643 13.2229 40.8372C13.652 40.3835 14.2974 39.7454 15.1604 38.9221L15.1608 38.9225L15.1696 38.9124C16.6514 37.2219 17.8152 35.7221 18.6592 34.4137C19.5021 33.1069 20.0314 31.9827 20.2355 31.0442L20.2389 31.0285V31.0124C20.2389 30.6199 20.0601 30.3175 19.7162 30.1226C19.3848 29.9348 18.9071 29.85 18.3024 29.85H17.6771ZM30.2029 36.0164L30.2009 36.0057L30.1973 35.9955C29.4361 33.7918 28.2878 32.6191 26.7207 32.6191C26.2227 32.6191 25.7628 32.723 25.3435 32.9327L25.333 32.938L25.3235 32.9448C22.9961 34.6043 21.8364 37.0348 21.8364 40.213V40.5703C21.8364 41.0646 21.9289 41.6346 22.11 42.2784L22.1096 42.2785L22.1133 42.2889C22.3677 42.9909 22.7158 43.5306 23.1647 43.8951C23.6159 44.2614 24.1589 44.4423 24.7853 44.4423C25.6479 44.4423 26.4865 44.0522 27.299 43.3007L27.3042 43.2958L27.309 43.2905C29.3087 41.0508 30.3247 38.8431 30.3247 36.6697V36.6556L30.322 36.6417L30.2029 36.0164ZM35.3772 33.8107L35.3773 33.8102H35.3649C34.7554 33.8102 34.1772 33.9883 33.6328 34.3396L33.0636 34.2583L33.0309 34.2536L32.9993 34.2631L32.7208 34.3467C32.4795 34.3578 32.3002 34.5378 32.169 34.7873C32.0316 35.0486 31.9229 35.4278 31.8376 35.9143C31.6666 36.8903 31.5823 38.345 31.5823 40.2726V43.2501H31.5822L31.5824 43.2545C31.5928 43.6082 31.6709 43.8997 31.8398 44.1048C32.0137 44.3159 32.2643 44.4125 32.566 44.4125C32.7655 44.4125 32.9469 44.3629 33.1043 44.2595C33.261 44.1565 33.3854 44.0059 33.4814 43.8167C33.6711 43.4427 33.7582 42.9007 33.7582 42.208C33.7582 40.2369 33.8822 38.7191 34.1266 37.6485C34.2488 37.1132 34.3996 36.6967 34.5754 36.3932C34.7439 36.1023 34.9298 35.9242 35.1271 35.8371H35.4542C35.673 35.8371 35.8115 35.8995 35.8989 36.001C35.9899 36.1064 36.0484 36.2802 36.0486 36.5491L35.9593 40.6564L35.9593 40.6564V40.6597V40.6692L35.9 40.7483L35.8048 40.8752L35.9368 40.9631L35.9593 40.9781V41.2849C35.9593 42.1362 36.1163 42.8534 36.4402 43.428C36.7653 44.0049 37.2534 44.4285 37.8974 44.6986L37.9252 44.7103H37.9554C38.2025 44.7103 38.4172 44.6232 38.59 44.4505C38.7589 44.2816 38.8802 44.0386 38.9635 43.7367L38.9689 43.7171V43.6968V43.6372V43.5914L38.9433 43.5534C38.3307 42.6443 38.0462 41.9525 38.0458 41.4646C38.0458 41.4643 38.0458 41.4639 38.0458 41.4636L38.1054 36.8205L38.1055 36.8081L38.1036 36.7958L38.0458 36.4199C38.0437 35.6425 37.8239 35.0201 37.3679 34.5749C36.9122 34.1299 36.2408 33.8818 35.3772 33.8107ZM42.4357 33.1551L42.4357 33.1551H42.432C41.7317 33.1551 41.1985 33.4705 40.8498 34.0873C40.5083 34.6916 40.3466 35.5787 40.3466 36.7293V37.2901L40.1686 37.3268C39.8188 37.3988 39.5379 37.5127 39.3422 37.6796C39.1406 37.8515 39.0364 38.0741 39.0364 38.3372C39.0364 38.6876 39.169 38.9789 39.4333 39.1972C39.672 39.3944 40.0093 39.525 40.4308 39.6C40.7487 41.0685 41.1867 42.1904 41.7533 42.9525C42.3369 43.7376 43.0609 44.1445 43.9207 44.1445H43.9351L43.9492 44.1418C44.5776 44.0202 45.1207 43.8265 45.5752 43.5579L45.5754 43.5583L45.5851 43.5515C46.4214 42.9641 47.0546 42.4598 47.4801 42.0393C47.6928 41.8291 47.8575 41.6361 47.97 41.4608C48.0809 41.2877 48.15 41.1179 48.15 40.9574V40.9299L48.1403 40.9042C47.9139 40.3074 47.5683 39.9439 47.077 39.9439H46.8983H46.8335L46.7891 39.9911C46.1473 40.6724 45.5917 41.1782 45.1216 41.5126C44.6468 41.8503 44.2795 41.9984 44.0101 41.9984H43.6528C43.5916 41.9984 43.5147 41.9694 43.4201 41.8749C43.3249 41.7797 43.2232 41.6286 43.1176 41.4126C42.908 40.984 42.699 40.3327 42.4926 39.4513V39.4117L42.5008 39.4035C43.8371 39.2555 44.8511 39.075 45.5363 38.8599C45.8825 38.7513 46.1551 38.6307 46.3441 38.4941C46.5324 38.358 46.6612 38.1878 46.6612 37.9799V37.9711L46.6602 37.9623L46.6006 37.4561L46.5963 37.4195L46.5755 37.389C45.6308 36.0067 44.8189 34.9616 44.1404 34.258C43.8012 33.9063 43.4918 33.6361 43.2125 33.4516C42.9353 33.2685 42.6746 33.1611 42.4357 33.1551ZM24.7853 42.3855C24.637 42.3855 24.514 42.3499 24.4109 42.2831C24.307 42.2158 24.2146 42.1113 24.137 41.9607C23.9798 41.6551 23.8931 41.1777 23.8931 40.5108C23.8931 38.7903 24.2262 37.3673 24.883 36.2338C25.2576 36.136 25.554 36.0192 25.7625 35.8785C25.9836 35.7292 26.1263 35.5376 26.1263 35.3001C26.1263 35.0654 26.1693 34.9165 26.232 34.8294C26.2881 34.7515 26.3726 34.7057 26.5123 34.7057C26.9312 34.7057 27.2775 34.8453 27.5609 35.1241C27.8449 35.4036 28.0738 35.8314 28.2381 36.4221V36.9485C27.7644 38.7893 27.2324 40.157 26.6469 41.062C26.0587 41.971 25.436 42.3855 24.7853 42.3855ZM42.3735 36.5587L42.4773 35.5989H42.5568C42.9325 35.9139 43.3577 36.4181 43.8318 37.1199C43.8317 37.12 43.8316 37.12 43.8314 37.1201C43.7819 37.1484 43.6954 37.1793 43.5618 37.2079C43.3029 37.2634 42.9087 37.3023 42.3735 37.3224V36.5587ZM43.8656 37.0949C43.8657 37.0949 43.8654 37.0955 43.8643 37.0967C43.865 37.0954 43.8656 37.0949 43.8656 37.0949Z" stroke="black" stroke-opacity="0.2" stroke-width="0.3"/>
</svg>
